<svg width="14" height="14" viewBox="0 0 14 14" fill="none" xmlns="http://www.w3.org/2000/svg">
<path d="M13.754 12.5838L11.0633 9.8931C11.8788 8.8256 12.326 7.53079 12.3262 6.16447C12.3262 4.51793 11.6849 2.96982 10.5205 1.80555C9.35619 0.64128 7.80828 0 6.16154 0C4.51499 0 2.96688 0.64128 1.80261 1.80555C-0.600871 4.20924 -0.600871 8.12011 1.80261 10.5234C2.96688 11.6879 4.51499 12.3291 6.16154 12.3291C7.52785 12.329 8.82267 11.8817 9.89017 11.0663L12.5808 13.7569C12.7427 13.919 12.9551 14 13.1674 14C13.3797 14 13.5922 13.919 13.754 13.7569C14.0781 13.4331 14.0781 12.9076 13.754 12.5838ZM2.9758 9.35021C1.21926 7.59368 1.21947 4.73547 2.9758 2.97873C3.82672 2.12801 4.95817 1.65931 6.16154 1.65931C7.3651 1.65931 8.49635 2.12801 9.34728 2.97873C10.1982 3.82965 10.6669 4.96111 10.6669 6.16447C10.6669 7.36804 10.1982 8.49929 9.34728 9.35021C8.49635 10.2011 7.3651 10.6698 6.16154 10.6698C4.95817 10.6698 3.82672 10.2011 2.9758 9.35021Z" fill="#9D9D9D"/>
</svg>
